<svg xmlns="http://www.w3.org/2000/svg" xmlns:xlink="http://www.w3.org/1999/xlink" width="1000" height="542.75"><rect width="1000" height="542.75" rx="0" ry="0" class="a"/><svg height="542.75" viewBox="0 0 100 54.275" width="1000" xmlns="http://www.w3.org/2000/svg" xmlns:xlink="http://www.w3.org/1999/xlink"><style>@keyframes p{0%{transform:translateX(0)}1.23%{transform:translateX(-100px)}1.36%{transform:translateX(-200px)}7.05%{transform:translateX(-300px)}7.63%{transform:translateX(-400px)}8.91%{transform:translateX(-500px)}9.25%{transform:translateX(-600px)}9.75%{transform:translateX(-700px)}10.5%{transform:translateX(-800px)}11.05%{transform:translateX(-900px)}12.61%{transform:translateX(-1000px)}13.01%{transform:translateX(-1100px)}13.45%{transform:translateX(-1200px)}13.9%{transform:translateX(-1300px)}14.35%{transform:translateX(-1400px)}14.87%{transform:translateX(-1500px)}15.33%{transform:translateX(-1600px)}15.71%{transform:translateX(-1700px)}16.3%{transform:translateX(-1800px)}16.86%{transform:translateX(-1900px)}17.17%{transform:translateX(-2000px)}17.83%{transform:translateX(-2100px)}17.98%{transform:translateX(-2200px)}18.67%{transform:translateX(-2300px)}19.07%{transform:translateX(-2400px)}19.4%{transform:translateX(-2500px)}19.67%{transform:translateX(-2600px)}20.14%{transform:translateX(-2700px)}20.57%{transform:translateX(-2800px)}20.86%{transform:translateX(-2900px)}21.06%{transform:translateX(-3000px)}21.55%{transform:translateX(-3100px)}21.87%{transform:translateX(-3200px)}22.56%{transform:translateX(-3300px)}22.8%{transform:translateX(-3400px)}25.76%{transform:translateX(-3500px)}26.77%{transform:translateX(-3600px)}27.03%{transform:translateX(-3700px)}27.53%{transform:translateX(-3800px)}28.43%{transform:translateX(-3900px)}30.51%{transform:translateX(-4000px)}30.52%{transform:translateX(-4100px)}31.14%{transform:translateX(-4200px)}38.18%{transform:translateX(-4300px)}41.12%{transform:translateX(-4400px)}42.99%{transform:translateX(-4500px)}45.11%{transform:translateX(-4600px)}45.27%{transform:translateX(-4700px)}45.57%{transform:translateX(-4800px)}50.21%{transform:translateX(-4900px)}51.08%{transform:translateX(-5000px)}51.21%{transform:translateX(-5100px)}58.03%{transform:translateX(-5200px)}59.02%{transform:translateX(-5300px)}59.44%{transform:translateX(-5500px)}62.29%{transform:translateX(-5600px)}64.36%{transform:translateX(-5700px)}70.74%{transform:translateX(-5800px)}70.87%{transform:translateX(-5900px)}70.98%{transform:translateX(-6000px)}to{transform:translateX(-6100px)}}.a{fill:#282d35}.c,.d{font-weight:700}.c{fill:#66c2cd;white-space:pre}.d{fill:#b9bfca}.d,.e,.f{white-space:pre}.e{fill:#a8cc8c;font-weight:700}.f{fill:#d290e4}.f,.g,.h{font-weight:700}.g{fill:#dbab79;white-space:pre}.h{fill:#e88388}.h,.i,.j,.k,.l{white-space:pre}.i{fill:#71bef2;font-weight:700}.j,.k,.l{fill:#b9c0cb}.k,.l{fill:#dbab79}.l{fill:#e88388}</style><g font-family="Monaco,Consolas,Menlo,'Bitstream Vera Sans Mono','Powerline Symbols',monospace" font-size="1.67"><defs><symbol id="1"><text y="1.67" class="c">rom1</text><text x="4.008" y="1.67" class="d">@</text><text x="5.01" y="1.67" class="e">money</text><text x="11.022" y="1.67" class="f">(master</text><text x="18.036" y="1.67" class="g">●</text><text x="19.038" y="1.67" class="h">…</text><text x="20.04" y="1.67" class="f">)</text><text x="22.044" y="1.67" class="i">~/src/doctoshotgun</text><text x="41.082" y="1.67" class="i">$</text></symbol><symbol id="2"><text y="1.67" class="c">rom1</text><text x="4.008" y="1.67" class="d">@</text><text x="5.01" y="1.67" class="e">money</text><text x="11.022" y="1.67" class="f">(master</text><text x="18.036" y="1.67" class="g">●</text><text x="19.038" y="1.67" class="h">…</text><text x="20.04" y="1.67" class="f">)</text><text x="22.044" y="1.67" class="i">~/src/doctoshotgun</text><text x="41.082" y="1.67" class="i">$</text><text x="43.086" y="1.67" class="j">./doctoshotgun.py</text><text x="61.122" y="1.67" class="j">fr</text></symbol><symbol id="3"><text y="1.67" class="c">rom1</text><text x="4.008" y="1.67" class="d">@</text><text x="5.01" y="1.67" class="e">money</text><text x="11.022" y="1.67" class="f">(master</text><text x="18.036" y="1.67" class="g">●</text><text x="19.038" y="1.67" class="h">…</text><text x="20.04" y="1.67" class="f">)</text><text x="22.044" y="1.67" class="i">~/src/doctoshotgun</text><text x="41.082" y="1.67" class="i">$</text><text x="43.086" y="1.67" class="j">./doctoshotgun.py</text><text x="61.122" y="1.67" class="j">fr</text><text x="64.128" y="1.67" class="j">paris</text></symbol><symbol id="4"><text y="1.67" class="c">rom1</text><text x="4.008" y="1.67" class="d">@</text><text x="5.01" y="1.67" class="e">money</text><text x="11.022" y="1.67" class="f">(master</text><text x="18.036" y="1.67" class="g">●</text><text x="19.038" y="1.67" class="h">…</text><text x="20.04" y="1.67" class="f">)</text><text x="22.044" y="1.67" class="i">~/src/doctoshotgun</text><text x="41.082" y="1.67" class="i">$</text><text x="43.086" y="1.67" class="j">./doctoshotgun.py</text><text x="61.122" y="1.67" class="j">fr</text><text x="64.128" y="1.67" class="j">paris</text><text x="70.14" y="1.67" class="j">romain@bignon.me</text></symbol><symbol id="5"><text y="1.67" class="c">rom1</text><text x="4.008" y="1.67" class="d">@</text><text x="5.01" y="1.67" class="e">money</text><text x="11.022" y="1.67" class="f">(master</text><text x="18.036" y="1.67" class="g">●</text><text x="19.038" y="1.67" class="h">…</text><text x="20.04" y="1.67" class="f">)</text><text x="22.044" y="1.67" class="i">~/src/doctoshotgun</text><text x="41.082" y="1.67" class="i">$</text><text x="43.086" y="1.67" class="j">./doctoshotgun.py</text><text x="61.122" y="1.67" class="j">fr</text><text x="64.128" y="1.67" class="j">paris</text><text x="70.14" y="1.67" class="j">romain@bignon.me</text><text x="87.174" y="1.67" class="j">-p</text></symbol><symbol id="6"><text y="1.67" class="c">rom1</text><text x="4.008" y="1.67" class="d">@</text><text x="5.01" y="1.67" class="e">money</text><text x="11.022" y="1.67" class="f">(master</text><text x="18.036" y="1.67" class="g">●</text><text x="19.038" y="1.67" class="h">…</text><text x="20.04" y="1.67" class="f">)</text><text x="22.044" y="1.67" class="i">~/src/doctoshotgun</text><text x="41.082" y="1.67" class="i">$</text><text x="43.086" y="1.67" class="j">./doctoshotgun.py</text><text x="61.122" y="1.67" class="j">fr</text><text x="64.128" y="1.67" class="j">paris</text><text x="70.14" y="1.67" class="j">romain@bignon.me</text><text x="87.174" y="1.67" class="j">-p</text><text x="90.18" y="1.67" class="j">0</text></symbol><symbol id="7"><text y="1.67" class="j">Password:</text></symbol><symbol id="8"><text y="1.67" class="j">Starting</text><text x="9.018" y="1.67" class="j">to</text><text x="12.024" y="1.67" class="j">look</text><text x="17.034" y="1.67" class="j">for</text><text x="21.042" y="1.67" class="j">vaccine</text><text x="29.058" y="1.67" class="j">slots</text><text x="35.07" y="1.67" class="j">for</text><text x="39.078" y="1.67" class="k">Romain</text><text x="46.092" y="1.67" class="k">Bignon</text><text x="52.104" y="1.67" class="j">...</text></symbol><symbol id="9"><text y="1.67" class="j">This</text><text x="5.01" y="1.67" class="j">may</text><text x="9.018" y="1.67" class="j">take</text><text x="14.028" y="1.67" class="j">a</text><text x="16.032" y="1.67" class="j">few</text><text x="20.04" y="1.67" class="j">minutes/hours,</text><text x="35.07" y="1.67" class="j">be</text><text x="38.076" y="1.67" class="j">patient!</text></symbol><symbol id="10"><text y="1.67" class="j">Center</text><text x="7.014" y="1.67" class="k">Centre</text><text x="14.028" y="1.67" class="k">de</text><text x="17.034" y="1.67" class="k">vaccination</text><text x="29.058" y="1.67" class="k">Covid-19</text><text x="38.076" y="1.67" class="k">-</text><text x="40.08" y="1.67" class="k">CPAM</text><text x="45.09" y="1.67" class="k">de</text><text x="48.096" y="1.67" class="k">Paris</text><text x="54.108" y="1.67" class="k">75</text><text x="56.112" y="1.67" class="j">:</text></symbol><symbol id="11"><text y="1.67" class="j">–</text><text x="2.004" y="1.67" class="k">Centre</text><text x="9.018" y="1.67" class="k">de</text><text x="12.024" y="1.67" class="k">vaccination</text><text x="24.048" y="1.67" class="k">Amelot</text><text x="31.062" y="1.67" class="k">-</text><text x="33.066" y="1.67" class="k">CPAM</text><text x="38.076" y="1.67" class="k">de</text><text x="41.082" y="1.67" class="k">Paris</text><text x="47.094" y="1.67" class="k">75</text><text x="49.098" y="1.67" class="j">...</text><text x="53.106" y="1.67" class="l">no</text><text x="56.112" y="1.67" class="l">availabilities</text></symbol><symbol id="12"><text y="1.67" class="j">–</text><text x="2.004" y="1.67" class="k">Centre</text><text x="9.018" y="1.67" class="k">de</text><text x="12.024" y="1.67" class="k">vaccination</text><text x="24.048" y="1.67" class="k">Maroc</text><text x="30.06" y="1.67" class="k">-</text><text x="32.064" y="1.67" class="k">CPAM</text><text x="37.074" y="1.67" class="k">de</text><text x="40.08" y="1.67" class="k">Paris</text><text x="46.092" y="1.67" class="k">75</text><text x="49.098" y="1.67" class="j">...</text><text x="53.106" y="1.67" class="l">no</text><text x="56.112" y="1.67" class="l">availabilities</text></symbol><symbol id="13"><text y="1.67" class="j">Center</text><text x="7.014" y="1.67" class="k">Centre</text><text x="14.028" y="1.67" class="k">de</text><text x="17.034" y="1.67" class="k">vaccination</text><text x="29.058" y="1.67" class="k">Covid-19</text><text x="38.076" y="1.67" class="k">-</text><text x="40.08" y="1.67" class="k">Paris</text><text x="46.092" y="1.67" class="k">17ᵉ</text><text x="49.098" y="1.67" class="j">:</text></symbol><symbol id="14"><text y="1.67" class="j">–</text><text x="2.004" y="1.67" class="k">Centre</text><text x="9.018" y="1.67" class="k">de</text><text x="12.024" y="1.67" class="k">Vaccination</text><text x="24.048" y="1.67" class="k">Covid-19</text><text x="33.066" y="1.67" class="k">-</text><text x="35.07" y="1.67" class="k">Paris</text><text x="41.082" y="1.67" class="k">17e</text><text x="44.088" y="1.67" class="j">...</text><text x="48.096" y="1.67" class="l">no</text><text x="51.102" y="1.67" class="l">availabilities</text></symbol><symbol id="15"><text y="1.67" class="j">Center</text><text x="7.014" y="1.67" class="k">Centre</text><text x="14.028" y="1.67" class="k">de</text><text x="17.034" y="1.67" class="k">Vaccination</text><text x="29.058" y="1.67" class="k">Covid-19</text><text x="38.076" y="1.67" class="k">-</text><text x="40.08" y="1.67" class="k">Ville</text><text x="46.092" y="1.67" class="k">de</text><text x="49.098" y="1.67" class="k">Paris</text><text x="54.108" y="1.67" class="j">:</text></symbol><symbol id="16"><text y="1.67" class="j">–</text><text x="2.004" y="1.67" class="k">Centre</text><text x="9.018" y="1.67" class="k">de</text><text x="12.024" y="1.67" class="k">Vaccination</text><text x="24.048" y="1.67" class="k">-</text><text x="26.052" y="1.67" class="k">Mairie</text><text x="33.066" y="1.67" class="k">du</text><text x="36.072" y="1.67" class="k">10e</text><text x="39.078" y="1.67" class="j">...</text><text x="43.086" y="1.67" style="white-space:pre" fill="#a8cc8c">found!</text></symbol><symbol id="17"><text x="2.004" y="1.67" class="j">├╴</text><text x="5.01" y="1.67" class="j">Best</text><text x="10.02" y="1.67" class="j">slot</text><text x="15.03" y="1.67" class="j">found:</text><text x="22.044" y="1.67" class="k">Mon</text><text x="26.052" y="1.67" class="k">May</text><text x="30.06" y="1.67" class="k">17</text><text x="33.066" y="1.67" class="k">16:30:00</text><text x="42.084" y="1.67" class="k">2021</text></symbol><symbol id="18"><text x="2.004" y="1.67" class="j">├╴</text><text x="5.01" y="1.67" class="j">Second</text><text x="12.024" y="1.67" class="j">shot:</text><text x="18.036" y="1.67" class="k">Sat</text><text x="22.044" y="1.67" class="k">Jun</text><text x="26.052" y="1.67" class="k">26</text><text x="29.058" y="1.67" class="k">17:00:00</text><text x="38.076" y="1.67" class="k">2021</text></symbol><symbol id="19"><text x="2.004" y="1.67" class="j">├╴</text><text x="5.01" y="1.67" class="j">Booking</text><text x="13.026" y="1.67" class="j">for</text><text x="17.034" y="1.67" class="k">Romain</text><text x="24.048" y="1.67" class="k">Bignon</text><text x="30.06" y="1.67" class="j">...</text></symbol><symbol id="20"><text x="2.004" y="1.67" class="j">└╴</text><text x="5.01" y="1.67" class="j">Booking</text><text x="13.026" y="1.67" class="j">status:</text><text x="21.042" y="1.67" class="k">True</text></symbol><symbol id="21"><text y="1.67" class="j">💉</text><text x="3.006" y="1.67" class="e">Booked!</text><text x="11.022" y="1.67" class="j">Congratulations.</text></symbol><symbol id="a"><path fill="transparent" d="M0 0h100v25H0z"/></symbol><symbol id="b"><path fill="#6f7683" d="M0 0h1.102v2.171H0z"/></symbol></defs><path class="a" d="M0 0h100v54.275H0z"/><g style="animation-duration:22.390489s;animation-iteration-count:infinite;animation-name:p;animation-timing-function:steps(1,end)"><svg width="6200"><svg><use xlink:href="#a"/><use xlink:href="#b" x="-.004"/></svg><svg x="100"><use xlink:href="#a"/><use xlink:href="#b" x="-.004"/></svg><svg x="200"><use xlink:href="#a"/><use xlink:href="#b" x="42.996"/><use xlink:href="#1"/></svg><svg x="300"><use xlink:href="#a"/><use xlink:href="#b" x="43.996"/><text y="1.67" class="c">rom1</text><text x="4.008" y="1.67" class="d">@</text><text x="5.01" y="1.67" class="e">money</text><text x="11.022" y="1.67" class="f">(master</text><text x="18.036" y="1.67" class="g">●</text><text x="19.038" y="1.67" class="h">…</text><text x="20.04" y="1.67" class="f">)</text><text x="22.044" y="1.67" class="i">~/src/doctoshotgun</text><text x="41.082" y="1.67" class="i">$</text><text x="43.086" y="1.67" class="j">.</text></svg><svg x="400"><use xlink:href="#a"/><use xlink:href="#b" x="44.996"/><text y="1.67" class="c">rom1</text><text x="4.008" y="1.67" class="d">@</text><text x="5.01" y="1.67" class="e">money</text><text x="11.022" y="1.67" class="f">(master</text><text x="18.036" y="1.67" class="g">●</text><text x="19.038" y="1.67" class="h">…</text><text x="20.04" y="1.67" class="f">)</text><text x="22.044" y="1.67" class="i">~/src/doctoshotgun</text><text x="41.082" y="1.67" class="i">$</text><text x="43.086" y="1.67" class="j">./</text></svg><svg x="500"><use xlink:href="#a"/><use xlink:href="#b" x="45.996"/><text y="1.67" class="c">rom1</text><text x="4.008" y="1.67" class="d">@</text><text x="5.01" y="1.67" class="e">money</text><text x="11.022" y="1.67" class="f">(master</text><text x="18.036" y="1.67" class="g">●</text><text x="19.038" y="1.67" class="h">…</text><text x="20.04" y="1.67" class="f">)</text><text x="22.044" y="1.67" class="i">~/src/doctoshotgun</text><text x="41.082" y="1.67" class="i">$</text><text x="43.086" y="1.67" class="j">./d</text></svg><svg x="600"><use xlink:href="#a"/><use xlink:href="#b" x="46.996"/><text y="1.67" class="c">rom1</text><text x="4.008" y="1.67" class="d">@</text><text x="5.01" y="1.67" class="e">money</text><text x="11.022" y="1.67" class="f">(master</text><text x="18.036" y="1.67" class="g">●</text><text x="19.038" y="1.67" class="h">…</text><text x="20.04" y="1.67" class="f">)</text><text x="22.044" y="1.67" class="i">~/src/doctoshotgun</text><text x="41.082" y="1.67" class="i">$</text><text x="43.086" y="1.67" class="j">./do</text></svg><svg x="700"><use xlink:href="#a"/><use xlink:href="#b" x="47.996"/><text y="1.67" class="c">rom1</text><text x="4.008" y="1.67" class="d">@</text><text x="5.01" y="1.67" class="e">money</text><text x="11.022" y="1.67" class="f">(master</text><text x="18.036" y="1.67" class="g">●</text><text x="19.038" y="1.67" class="h">…</text><text x="20.04" y="1.67" class="f">)</text><text x="22.044" y="1.67" class="i">~/src/doctoshotgun</text><text x="41.082" y="1.67" class="i">$</text><text x="43.086" y="1.67" class="j">./doc</text></svg><svg x="800"><use xlink:href="#a"/><use xlink:href="#b" x="48.996"/><text y="1.67" class="c">rom1</text><text x="4.008" y="1.67" class="d">@</text><text x="5.01" y="1.67" class="e">money</text><text x="11.022" y="1.67" class="f">(master</text><text x="18.036" y="1.67" class="g">●</text><text x="19.038" y="1.67" class="h">…</text><text x="20.04" y="1.67" class="f">)</text><text x="22.044" y="1.67" class="i">~/src/doctoshotgun</text><text x="41.082" y="1.67" class="i">$</text><text x="43.086" y="1.67" class="j">./doct</text></svg><svg x="900"><use xlink:href="#a"/><use xlink:href="#b" x="60.996"/><text y="1.67" class="c">rom1</text><text x="4.008" y="1.67" class="d">@</text><text x="5.01" y="1.67" class="e">money</text><text x="11.022" y="1.67" class="f">(master</text><text x="18.036" y="1.67" class="g">●</text><text x="19.038" y="1.67" class="h">…</text><text x="20.04" y="1.67" class="f">)</text><text x="22.044" y="1.67" class="i">~/src/doctoshotgun</text><text x="41.082" y="1.67" class="i">$</text><text x="43.086" y="1.67" class="j">./doctoshotgun.py</text></svg><svg x="1000"><use xlink:href="#a"/><use xlink:href="#b" x="61.996"/><text y="1.67" class="c">rom1</text><text x="4.008" y="1.67" class="d">@</text><text x="5.01" y="1.67" class="e">money</text><text x="11.022" y="1.67" class="f">(master</text><text x="18.036" y="1.67" class="g">●</text><text x="19.038" y="1.67" class="h">…</text><text x="20.04" y="1.67" class="f">)</text><text x="22.044" y="1.67" class="i">~/src/doctoshotgun</text><text x="41.082" y="1.67" class="i">$</text><text x="43.086" y="1.67" class="j">./doctoshotgun.py</text><text x="61.122" y="1.67" class="j">f</text></svg><svg x="1100"><use xlink:href="#a"/><use xlink:href="#b" x="62.996"/><use xlink:href="#2"/></svg><svg x="1200"><use xlink:href="#a"/><use xlink:href="#b" x="63.996"/><use xlink:href="#2"/></svg><svg x="1300"><use xlink:href="#a"/><use xlink:href="#b" x="64.996"/><text y="1.67" class="c">rom1</text><text x="4.008" y="1.67" class="d">@</text><text x="5.01" y="1.67" class="e">money</text><text x="11.022" y="1.67" class="f">(master</text><text x="18.036" y="1.67" class="g">●</text><text x="19.038" y="1.67" class="h">…</text><text x="20.04" y="1.67" class="f">)</text><text x="22.044" y="1.67" class="i">~/src/doctoshotgun</text><text x="41.082" y="1.67" class="i">$</text><text x="43.086" y="1.67" class="j">./doctoshotgun.py</text><text x="61.122" y="1.67" class="j">fr</text><text x="64.128" y="1.67" class="j">p</text></svg><svg x="1400"><use xlink:href="#a"/><use xlink:href="#b" x="65.996"/><text y="1.67" class="c">rom1</text><text x="4.008" y="1.67" class="d">@</text><text x="5.01" y="1.67" class="e">money</text><text x="11.022" y="1.67" class="f">(master</text><text x="18.036" y="1.67" class="g">●</text><text x="19.038" y="1.67" class="h">…</text><text x="20.04" y="1.67" class="f">)</text><text x="22.044" y="1.67" class="i">~/src/doctoshotgun</text><text x="41.082" y="1.67" class="i">$</text><text x="43.086" y="1.67" class="j">./doctoshotgun.py</text><text x="61.122" y="1.67" class="j">fr</text><text x="64.128" y="1.67" class="j">pa</text></svg><svg x="1500"><use xlink:href="#a"/><use xlink:href="#b" x="66.996"/><text y="1.67" class="c">rom1</text><text x="4.008" y="1.67" class="d">@</text><text x="5.01" y="1.67" class="e">money</text><text x="11.022" y="1.67" class="f">(master</text><text x="18.036" y="1.67" class="g">●</text><text x="19.038" y="1.67" class="h">…</text><text x="20.04" y="1.67" class="f">)</text><text x="22.044" y="1.67" class="i">~/src/doctoshotgun</text><text x="41.082" y="1.67" class="i">$</text><text x="43.086" y="1.67" class="j">./doctoshotgun.py</text><text x="61.122" y="1.67" class="j">fr</text><text x="64.128" y="1.67" class="j">par</text></svg><svg x="1600"><use xlink:href="#a"/><use xlink:href="#b" x="67.996"/><text y="1.67" class="c">rom1</text><text x="4.008" y="1.67" class="d">@</text><text x="5.01" y="1.67" class="e">money</text><text x="11.022" y="1.67" class="f">(master</text><text x="18.036" y="1.67" class="g">●</text><text x="19.038" y="1.67" class="h">…</text><text x="20.04" y="1.67" class="f">)</text><text x="22.044" y="1.67" class="i">~/src/doctoshotgun</text><text x="41.082" y="1.67" class="i">$</text><text x="43.086" y="1.67" class="j">./doctoshotgun.py</text><text x="61.122" y="1.67" class="j">fr</text><text x="64.128" y="1.67" class="j">pari</text></svg><svg x="1700"><use xlink:href="#a"/><use xlink:href="#b" x="68.996"/><use xlink:href="#3"/></svg><svg x="1800"><use xlink:href="#a"/><use xlink:href="#b" x="69.996"/><use xlink:href="#3"/></svg><svg x="1900"><use xlink:href="#a"/><use xlink:href="#b" x="70.996"/><text y="1.67" class="c">rom1</text><text x="4.008" y="1.67" class="d">@</text><text x="5.01" y="1.67" class="e">money</text><text x="11.022" y="1.67" class="f">(master</text><text x="18.036" y="1.67" class="g">●</text><text x="19.038" y="1.67" class="h">…</text><text x="20.04" y="1.67" class="f">)</text><text x="22.044" y="1.67" class="i">~/src/doctoshotgun</text><text x="41.082" y="1.67" class="i">$</text><text x="43.086" y="1.67" class="j">./doctoshotgun.py</text><text x="61.122" y="1.67" class="j">fr</text><text x="64.128" y="1.67" class="j">paris</text><text x="70.14" y="1.67" class="j">r</text></svg><svg x="2000"><use xlink:href="#a"/><use xlink:href="#b" x="71.996"/><text y="1.67" class="c">rom1</text><text x="4.008" y="1.67" class="d">@</text><text x="5.01" y="1.67" class="e">money</text><text x="11.022" y="1.67" class="f">(master</text><text x="18.036" y="1.67" class="g">●</text><text x="19.038" y="1.67" class="h">…</text><text x="20.04" y="1.67" class="f">)</text><text x="22.044" y="1.67" class="i">~/src/doctoshotgun</text><text x="41.082" y="1.67" class="i">$</text><text x="43.086" y="1.67" class="j">./doctoshotgun.py</text><text x="61.122" y="1.67" class="j">fr</text><text x="64.128" y="1.67" class="j">paris</text><text x="70.14" y="1.67" class="j">ro</text></svg><svg x="2100"><use xlink:href="#a"/><use xlink:href="#b" x="72.996"/><text y="1.67" class="c">rom1</text><text x="4.008" y="1.67" class="d">@</text><text x="5.01" y="1.67" class="e">money</text><text x="11.022" y="1.67" class="f">(master</text><text x="18.036" y="1.67" class="g">●</text><text x="19.038" y="1.67" class="h">…</text><text x="20.04" y="1.67" class="f">)</text><text x="22.044" y="1.67" class="i">~/src/doctoshotgun</text><text x="41.082" y="1.67" class="i">$</text><text x="43.086" y="1.67" class="j">./doctoshotgun.py</text><text x="61.122" y="1.67" class="j">fr</text><text x="64.128" y="1.67" class="j">paris</text><text x="70.14" y="1.67" class="j">rom</text></svg><svg x="2200"><use xlink:href="#a"/><use xlink:href="#b" x="73.996"/><text y="1.67" class="c">rom1</text><text x="4.008" y="1.67" class="d">@</text><text x="5.01" y="1.67" class="e">money</text><text x="11.022" y="1.67" class="f">(master</text><text x="18.036" y="1.67" class="g">●</text><text x="19.038" y="1.67" class="h">…</text><text x="20.04" y="1.67" class="f">)</text><text x="22.044" y="1.67" class="i">~/src/doctoshotgun</text><text x="41.082" y="1.67" class="i">$</text><text x="43.086" y="1.67" class="j">./doctoshotgun.py</text><text x="61.122" y="1.67" class="j">fr</text><text x="64.128" y="1.67" class="j">paris</text><text x="70.14" y="1.67" class="j">roma</text></svg><svg x="2300"><use xlink:href="#a"/><use xlink:href="#b" x="74.996"/><text y="1.67" class="c">rom1</text><text x="4.008" y="1.67" class="d">@</text><text x="5.01" y="1.67" class="e">money</text><text x="11.022" y="1.67" class="f">(master</text><text x="18.036" y="1.67" class="g">●</text><text x="19.038" y="1.67" class="h">…</text><text x="20.04" y="1.67" class="f">)</text><text x="22.044" y="1.67" class="i">~/src/doctoshotgun</text><text x="41.082" y="1.67" class="i">$</text><text x="43.086" y="1.67" class="j">./doctoshotgun.py</text><text x="61.122" y="1.67" class="j">fr</text><text x="64.128" y="1.67" class="j">paris</text><text x="70.14" y="1.67" class="j">romai</text></svg><svg x="2400"><use xlink:href="#a"/><use xlink:href="#b" x="75.996"/><text y="1.67" class="c">rom1</text><text x="4.008" y="1.67" class="d">@</text><text x="5.01" y="1.67" class="e">money</text><text x="11.022" y="1.67" class="f">(master</text><text x="18.036" y="1.67" class="g">●</text><text x="19.038" y="1.67" class="h">…</text><text x="20.04" y="1.67" class="f">)</text><text x="22.044" y="1.67" class="i">~/src/doctoshotgun</text><text x="41.082" y="1.67" class="i">$</text><text x="43.086" y="1.67" class="j">./doctoshotgun.py</text><text x="61.122" y="1.67" class="j">fr</text><text x="64.128" y="1.67" class="j">paris</text><text x="70.14" y="1.67" class="j">romain</text></svg><svg x="2500"><use xlink:href="#a"/><use xlink:href="#b" x="76.996"/><text y="1.67" class="c">rom1</text><text x="4.008" y="1.67" class="d">@</text><text x="5.01" y="1.67" class="e">money</text><text x="11.022" y="1.67" class="f">(master</text><text x="18.036" y="1.67" class="g">●</text><text x="19.038" y="1.67" class="h">…</text><text x="20.04" y="1.67" class="f">)</text><text x="22.044" y="1.67" class="i">~/src/doctoshotgun</text><text x="41.082" y="1.67" class="i">$</text><text x="43.086" y="1.67" class="j">./doctoshotgun.py</text><text x="61.122" y="1.67" class="j">fr</text><text x="64.128" y="1.67" class="j">paris</text><text x="70.14" y="1.67" class="j">romain@</text></svg><svg x="2600"><use xlink:href="#a"/><use xlink:href="#b" x="77.996"/><text y="1.67" class="c">rom1</text><text x="4.008" y="1.67" class="d">@</text><text x="5.01" y="1.67" class="e">money</text><text x="11.022" y="1.67" class="f">(master</text><text x="18.036" y="1.67" class="g">●</text><text x="19.038" y="1.67" class="h">…</text><text x="20.04" y="1.67" class="f">)</text><text x="22.044" y="1.67" class="i">~/src/doctoshotgun</text><text x="41.082" y="1.67" class="i">$</text><text x="43.086" y="1.67" class="j">./doctoshotgun.py</text><text x="61.122" y="1.67" class="j">fr</text><text x="64.128" y="1.67" class="j">paris</text><text x="70.14" y="1.67" class="j">romain@b</text></svg><svg x="2700"><use xlink:href="#a"/><use xlink:href="#b" x="78.996"/><text y="1.67" class="c">rom1</text><text x="4.008" y="1.67" class="d">@</text><text x="5.01" y="1.67" class="e">money</text><text x="11.022" y="1.67" class="f">(master</text><text x="18.036" y="1.67" class="g">●</text><text x="19.038" y="1.67" class="h">…</text><text x="20.04" y="1.67" class="f">)</text><text x="22.044" y="1.67" class="i">~/src/doctoshotgun</text><text x="41.082" y="1.67" class="i">$</text><text x="43.086" y="1.67" class="j">./doctoshotgun.py</text><text x="61.122" y="1.67" class="j">fr</text><text x="64.128" y="1.67" class="j">paris</text><text x="70.14" y="1.67" class="j">romain@bi</text></svg><svg x="2800"><use xlink:href="#a"/><use xlink:href="#b" x="79.996"/><text y="1.67" class="c">rom1</text><text x="4.008" y="1.67" class="d">@</text><text x="5.01" y="1.67" class="e">money</text><text x="11.022" y="1.67" class="f">(master</text><text x="18.036" y="1.67" class="g">●</text><text x="19.038" y="1.67" class="h">…</text><text x="20.04" y="1.67" class="f">)</text><text x="22.044" y="1.67" class="i">~/src/doctoshotgun</text><text x="41.082" y="1.67" class="i">$</text><text x="43.086" y="1.67" class="j">./doctoshotgun.py</text><text x="61.122" y="1.67" class="j">fr</text><text x="64.128" y="1.67" class="j">paris</text><text x="70.14" y="1.67" class="j">romain@big</text></svg><svg x="2900"><use xlink:href="#a"/><use xlink:href="#b" x="80.996"/><text y="1.67" class="c">rom1</text><text x="4.008" y="1.67" class="d">@</text><text x="5.01" y="1.67" class="e">money</text><text x="11.022" y="1.67" class="f">(master</text><text x="18.036" y="1.67" class="g">●</text><text x="19.038" y="1.67" class="h">…</text><text x="20.04" y="1.67" class="f">)</text><text x="22.044" y="1.67" class="i">~/src/doctoshotgun</text><text x="41.082" y="1.67" class="i">$</text><text x="43.086" y="1.67" class="j">./doctoshotgun.py</text><text x="61.122" y="1.67" class="j">fr</text><text x="64.128" y="1.67" class="j">paris</text><text x="70.14" y="1.67" class="j">romain@bign</text></svg><svg x="3000"><use xlink:href="#a"/><use xlink:href="#b" x="81.996"/><text y="1.67" class="c">rom1</text><text x="4.008" y="1.67" class="d">@</text><text x="5.01" y="1.67" class="e">money</text><text x="11.022" y="1.67" class="f">(master</text><text x="18.036" y="1.67" class="g">●</text><text x="19.038" y="1.67" class="h">…</text><text x="20.04" y="1.67" class="f">)</text><text x="22.044" y="1.67" class="i">~/src/doctoshotgun</text><text x="41.082" y="1.67" class="i">$</text><text x="43.086" y="1.67" class="j">./doctoshotgun.py</text><text x="61.122" y="1.67" class="j">fr</text><text x="64.128" y="1.67" class="j">paris</text><text x="70.14" y="1.67" class="j">romain@bigno</text></svg><svg x="3100"><use xlink:href="#a"/><use xlink:href="#b" x="82.996"/><text y="1.67" class="c">rom1</text><text x="4.008" y="1.67" class="d">@</text><text x="5.01" y="1.67" class="e">money</text><text x="11.022" y="1.67" class="f">(master</text><text x="18.036" y="1.67" class="g">●</text><text x="19.038" y="1.67" class="h">…</text><text x="20.04" y="1.67" class="f">)</text><text x="22.044" y="1.67" class="i">~/src/doctoshotgun</text><text x="41.082" y="1.67" class="i">$</text><text x="43.086" y="1.67" class="j">./doctoshotgun.py</text><text x="61.122" y="1.67" class="j">fr</text><text x="64.128" y="1.67" class="j">paris</text><text x="70.14" y="1.67" class="j">romain@bignon</text></svg><svg x="3200"><use xlink:href="#a"/><use xlink:href="#b" x="83.996"/><text y="1.67" class="c">rom1</text><text x="4.008" y="1.67" class="d">@</text><text x="5.01" y="1.67" class="e">money</text><text x="11.022" y="1.67" class="f">(master</text><text x="18.036" y="1.67" class="g">●</text><text x="19.038" y="1.67" class="h">…</text><text x="20.04" y="1.67" class="f">)</text><text x="22.044" y="1.67" class="i">~/src/doctoshotgun</text><text x="41.082" y="1.67" class="i">$</text><text x="43.086" y="1.67" class="j">./doctoshotgun.py</text><text x="61.122" y="1.67" class="j">fr</text><text x="64.128" y="1.67" class="j">paris</text><text x="70.14" y="1.67" class="j">romain@bignon.</text></svg><svg x="3300"><use xlink:href="#a"/><use xlink:href="#b" x="84.996"/><text y="1.67" class="c">rom1</text><text x="4.008" y="1.67" class="d">@</text><text x="5.01" y="1.67" class="e">money</text><text x="11.022" y="1.67" class="f">(master</text><text x="18.036" y="1.67" class="g">●</text><text x="19.038" y="1.67" class="h">…</text><text x="20.04" y="1.67" class="f">)</text><text x="22.044" y="1.67" class="i">~/src/doctoshotgun</text><text x="41.082" y="1.67" class="i">$</text><text x="43.086" y="1.67" class="j">./doctoshotgun.py</text><text x="61.122" y="1.67" class="j">fr</text><text x="64.128" y="1.67" class="j">paris</text><text x="70.14" y="1.67" class="j">romain@bignon.m</text></svg><svg x="3400"><use xlink:href="#a"/><use xlink:href="#b" x="85.996"/><use xlink:href="#4"/></svg><svg x="3500"><use xlink:href="#a"/><use xlink:href="#b" x="86.996"/><use xlink:href="#4"/></svg><svg x="3600"><use xlink:href="#a"/><use xlink:href="#b" x="87.996"/><text y="1.67" class="c">rom1</text><text x="4.008" y="1.67" class="d">@</text><text x="5.01" y="1.67" class="e">money</text><text x="11.022" y="1.67" class="f">(master</text><text x="18.036" y="1.67" class="g">●</text><text x="19.038" y="1.67" class="h">…</text><text x="20.04" y="1.67" class="f">)</text><text x="22.044" y="1.67" class="i">~/src/doctoshotgun</text><text x="41.082" y="1.67" class="i">$</text><text x="43.086" y="1.67" class="j">./doctoshotgun.py</text><text x="61.122" y="1.67" class="j">fr</text><text x="64.128" y="1.67" class="j">paris</text><text x="70.14" y="1.67" class="j">romain@bignon.me</text><text x="87.174" y="1.67" class="j">-</text></svg><svg x="3700"><use xlink:href="#a"/><use xlink:href="#b" x="88.996"/><use xlink:href="#5"/></svg><svg x="3800"><use xlink:href="#a"/><use xlink:href="#b" x="89.996"/><use xlink:href="#5"/></svg><svg x="3900"><use xlink:href="#a"/><use xlink:href="#b" x="90.996"/><use xlink:href="#6"/></svg><svg x="4000"><use xlink:href="#a"/><use xlink:href="#b" x="-.004" y="2.146"/><use xlink:href="#6"/></svg><svg x="4100"><use xlink:href="#a"/><use xlink:href="#b" x="-.004" y="2.146"/><use xlink:href="#6"/></svg><svg x="4200"><use xlink:href="#a"/><use xlink:href="#b" x="9.996" y="2.146"/><use xlink:href="#6"/><use xlink:href="#7" y="2.171"/></svg><svg x="4300"><use xlink:href="#a"/><use xlink:href="#b" x="-.004" y="4.317"/><use xlink:href="#6"/><use xlink:href="#7" y="2.171"/></svg><svg x="4400"><use xlink:href="#a"/><use xlink:href="#b" x="-.004" y="8.659"/><use xlink:href="#6"/><use xlink:href="#7" y="2.171"/><use xlink:href="#8" y="4.342"/><use xlink:href="#9" y="6.513"/></svg><svg x="4500"><use xlink:href="#a"/><use xlink:href="#b" x="-.004" y="13.001"/><use xlink:href="#6"/><use xlink:href="#7" y="2.171"/><use xlink:href="#8" y="4.342"/><use xlink:href="#9" y="6.513"/><use xlink:href="#10" y="10.855"/></svg><svg x="4600"><use xlink:href="#a"/><use xlink:href="#b" x="52.996" y="13.001"/><use xlink:href="#6"/><use xlink:href="#7" y="2.171"/><use xlink:href="#8" y="4.342"/><use xlink:href="#9" y="6.513"/><use xlink:href="#10" y="10.855"/><text y="14.696" class="j">–</text><text x="2.004" y="14.696" class="k">Centre</text><text x="9.018" y="14.696" class="k">de</text><text x="12.024" y="14.696" class="k">vaccination</text><text x="24.048" y="14.696" class="k">Amelot</text><text x="31.062" y="14.696" class="k">-</text><text x="33.066" y="14.696" class="k">CPAM</text><text x="38.076" y="14.696" class="k">de</text><text x="41.082" y="14.696" class="k">Paris</text><text x="47.094" y="14.696" class="k">75</text><text x="49.098" y="14.696" class="j">...</text></svg><svg x="4700"><use xlink:href="#a"/><use xlink:href="#b" x="52.996" y="15.172"/><use xlink:href="#6"/><use xlink:href="#7" y="2.171"/><use xlink:href="#8" y="4.342"/><use xlink:href="#9" y="6.513"/><use xlink:href="#10" y="10.855"/><use xlink:href="#11" y="13.026"/><text y="16.867" class="j">–</text><text x="2.004" y="16.867" class="k">Centre</text><text x="9.018" y="16.867" class="k">de</text><text x="12.024" y="16.867" class="k">vaccination</text><text x="24.048" y="16.867" class="k">Maroc</text><text x="30.06" y="16.867" class="k">-</text><text x="32.064" y="16.867" class="k">CPAM</text><text x="37.074" y="16.867" class="k">de</text><text x="40.08" y="16.867" class="k">Paris</text><text x="46.092" y="16.867" class="k">75</text><text x="49.098" y="16.867" class="j">...</text></svg><svg x="4800"><use xlink:href="#a"/><use xlink:href="#b" x="-.004" y="17.343"/><use xlink:href="#6"/><use xlink:href="#7" y="2.171"/><use xlink:href="#8" y="4.342"/><use xlink:href="#9" y="6.513"/><use xlink:href="#10" y="10.855"/><use xlink:href="#11" y="13.026"/><use xlink:href="#12" y="15.197"/></svg><svg x="4900"><use xlink:href="#a"/><use xlink:href="#b" x="-.004" y="21.685"/><use xlink:href="#6"/><use xlink:href="#7" y="2.171"/><use xlink:href="#8" y="4.342"/><use xlink:href="#9" y="6.513"/><use xlink:href="#10" y="10.855"/><use xlink:href="#11" y="13.026"/><use xlink:href="#12" y="15.197"/><use xlink:href="#13" y="19.539"/></svg><svg x="5000"><use xlink:href="#a"/><use xlink:href="#b" x="47.996" y="21.685"/><use xlink:href="#6"/><use xlink:href="#7" y="2.171"/><use xlink:href="#8" y="4.342"/><use xlink:href="#9" y="6.513"/><use xlink:href="#10" y="10.855"/><use xlink:href="#11" y="13.026"/><use xlink:href="#12" y="15.197"/><use xlink:href="#13" y="19.539"/><text y="23.38" class="j">–</text><text x="2.004" y="23.38" class="k">Centre</text><text x="9.018" y="23.38" class="k">de</text><text x="12.024" y="23.38" class="k">Vaccination</text><text x="24.048" y="23.38" class="k">Covid-19</text><text x="33.066" y="23.38" class="k">-</text><text x="35.07" y="23.38" class="k">Paris</text><text x="41.082" y="23.38" class="k">17e</text><text x="44.088" y="23.38" class="j">...</text></svg><svg x="5100"><use xlink:href="#a"/><use xlink:href="#b" x="-.004" y="23.856"/><use xlink:href="#6"/><use xlink:href="#7" y="2.171"/><use xlink:href="#8" y="4.342"/><use xlink:href="#9" y="6.513"/><use xlink:href="#10" y="10.855"/><use xlink:href="#11" y="13.026"/><use xlink:href="#12" y="15.197"/><use xlink:href="#13" y="19.539"/><use xlink:href="#14" y="21.71"/></svg><svg x="5200"><use xlink:href="#a"/><use xlink:href="#b" x="-.004" y="28.198"/><use xlink:href="#6"/><use xlink:href="#7" y="2.171"/><use xlink:href="#8" y="4.342"/><use xlink:href="#9" y="6.513"/><use xlink:href="#10" y="10.855"/><use xlink:href="#11" y="13.026"/><use xlink:href="#12" y="15.197"/><use xlink:href="#13" y="19.539"/><use xlink:href="#14" y="21.71"/><use xlink:href="#15" y="26.052"/></svg><svg x="5300"><use xlink:href="#a"/><use xlink:href="#b" x="42.996" y="28.198"/><use xlink:href="#6"/><use xlink:href="#7" y="2.171"/><use xlink:href="#8" y="4.342"/><use xlink:href="#9" y="6.513"/><use xlink:href="#10" y="10.855"/><use xlink:href="#11" y="13.026"/><use xlink:href="#12" y="15.197"/><use xlink:href="#13" y="19.539"/><use xlink:href="#14" y="21.71"/><use xlink:href="#15" y="26.052"/><text y="29.893" class="j">–</text><text x="2.004" y="29.893" class="k">Centre</text><text x="9.018" y="29.893" class="k">de</text><text x="12.024" y="29.893" class="k">Vaccination</text><text x="24.048" y="29.893" class="k">-</text><text x="26.052" y="29.893" class="k">Mairie</text><text x="33.066" y="29.893" class="k">du</text><text x="36.072" y="29.893" class="k">10e</text><text x="39.078" y="29.893" class="j">...</text></svg><svg x="5400"><use xlink:href="#a"/><use xlink:href="#b" x="-.004" y="30.369"/><use xlink:href="#6"/><use xlink:href="#7" y="2.171"/><use xlink:href="#8" y="4.342"/><use xlink:href="#9" y="6.513"/><use xlink:href="#10" y="10.855"/><use xlink:href="#11" y="13.026"/><use xlink:href="#12" y="15.197"/><use xlink:href="#13" y="19.539"/><use xlink:href="#14" y="21.71"/><use xlink:href="#15" y="26.052"/><use xlink:href="#16" y="28.223"/></svg><svg x="5500"><use xlink:href="#a"/><use xlink:href="#b" x="-.004" y="32.54"/><use xlink:href="#6"/><use xlink:href="#7" y="2.171"/><use xlink:href="#8" y="4.342"/><use xlink:href="#9" y="6.513"/><use xlink:href="#10" y="10.855"/><use xlink:href="#11" y="13.026"/><use xlink:href="#12" y="15.197"/><use xlink:href="#13" y="19.539"/><use xlink:href="#14" y="21.71"/><use xlink:href="#15" y="26.052"/><use xlink:href="#16" y="28.223"/><use xlink:href="#17" y="30.394"/></svg><svg x="5600"><use xlink:href="#a"/><use xlink:href="#b" x="-.004" y="34.711"/><use xlink:href="#6"/><use xlink:href="#7" y="2.171"/><use xlink:href="#8" y="4.342"/><use xlink:href="#9" y="6.513"/><use xlink:href="#10" y="10.855"/><use xlink:href="#11" y="13.026"/><use xlink:href="#12" y="15.197"/><use xlink:href="#13" y="19.539"/><use xlink:href="#14" y="21.71"/><use xlink:href="#15" y="26.052"/><use xlink:href="#16" y="28.223"/><use xlink:href="#17" y="30.394"/><use xlink:href="#18" y="32.565"/></svg><svg x="5700"><use xlink:href="#a"/><use xlink:href="#b" x="-.004" y="36.882"/><use xlink:href="#6"/><use xlink:href="#7" y="2.171"/><use xlink:href="#8" y="4.342"/><use xlink:href="#9" y="6.513"/><use xlink:href="#10" y="10.855"/><use xlink:href="#11" y="13.026"/><use xlink:href="#12" y="15.197"/><use xlink:href="#13" y="19.539"/><use xlink:href="#14" y="21.71"/><use xlink:href="#15" y="26.052"/><use xlink:href="#16" y="28.223"/><use xlink:href="#17" y="30.394"/><use xlink:href="#18" y="32.565"/><use xlink:href="#19" y="34.736"/></svg><svg x="5800"><use xlink:href="#a"/><use xlink:href="#b" x="-.004" y="43.395"/><use xlink:href="#6"/><use xlink:href="#7" y="2.171"/><use xlink:href="#8" y="4.342"/><use xlink:href="#9" y="6.513"/><use xlink:href="#10" y="10.855"/><use xlink:href="#11" y="13.026"/><use xlink:href="#12" y="15.197"/><use xlink:href="#13" y="19.539"/><use xlink:href="#14" y="21.71"/><use xlink:href="#15" y="26.052"/><use xlink:href="#16" y="28.223"/><use xlink:href="#17" y="30.394"/><use xlink:href="#18" y="32.565"/><use xlink:href="#19" y="34.736"/><use xlink:href="#20" y="36.907"/><use xlink:href="#21" y="41.249"/></svg><svg x="5900"><use xlink:href="#a"/><use xlink:href="#b" x="-.004" y="43.395"/><use xlink:href="#6"/><use xlink:href="#7" y="2.171"/><use xlink:href="#8" y="4.342"/><use xlink:href="#9" y="6.513"/><use xlink:href="#10" y="10.855"/><use xlink:href="#11" y="13.026"/><use xlink:href="#12" y="15.197"/><use xlink:href="#13" y="19.539"/><use xlink:href="#14" y="21.71"/><use xlink:href="#15" y="26.052"/><use xlink:href="#16" y="28.223"/><use xlink:href="#17" y="30.394"/><use xlink:href="#18" y="32.565"/><use xlink:href="#19" y="34.736"/><use xlink:href="#20" y="36.907"/><use xlink:href="#21" y="41.249"/></svg><svg x="6000"><use xlink:href="#a"/><use xlink:href="#b" x="42.996" y="43.395"/><use xlink:href="#6"/><use xlink:href="#7" y="2.171"/><use xlink:href="#8" y="4.342"/><use xlink:href="#9" y="6.513"/><use xlink:href="#10" y="10.855"/><use xlink:href="#11" y="13.026"/><use xlink:href="#12" y="15.197"/><use xlink:href="#13" y="19.539"/><use xlink:href="#14" y="21.71"/><use xlink:href="#15" y="26.052"/><use xlink:href="#16" y="28.223"/><use xlink:href="#17" y="30.394"/><use xlink:href="#18" y="32.565"/><use xlink:href="#19" y="34.736"/><use xlink:href="#20" y="36.907"/><use xlink:href="#21" y="41.249"/><use xlink:href="#1" y="43.42"/></svg><svg x="6100"><use xlink:href="#a"/><use xlink:href="#b" x="-.004" y="45.566"/><use xlink:href="#6"/><use xlink:href="#7" y="2.171"/><use xlink:href="#8" y="4.342"/><use xlink:href="#9" y="6.513"/><use xlink:href="#10" y="10.855"/><use xlink:href="#11" y="13.026"/><use xlink:href="#12" y="15.197"/><use xlink:href="#13" y="19.539"/><use xlink:href="#14" y="21.71"/><use xlink:href="#15" y="26.052"/><use xlink:href="#16" y="28.223"/><use xlink:href="#17" y="30.394"/><use xlink:href="#18" y="32.565"/><use xlink:href="#19" y="34.736"/><use xlink:href="#20" y="36.907"/><use xlink:href="#21" y="41.249"/><use xlink:href="#1" y="43.42"/></svg></svg></g></g></svg></svg>